<?xml version="1.0" encoding="UTF-8" standalone="no"?>
<!-- Created with Inkscape (http://www.inkscape.org/) -->

<svg
   xmlns:dc="http://purl.org/dc/elements/1.1/"
   xmlns:cc="http://creativecommons.org/ns#"
   xmlns:rdf="http://www.w3.org/1999/02/22-rdf-syntax-ns#"
   xmlns:svg="http://www.w3.org/2000/svg"
   xmlns="http://www.w3.org/2000/svg"
   xmlns:sodipodi="http://sodipodi.sourceforge.net/DTD/sodipodi-0.dtd"
   xmlns:inkscape="http://www.inkscape.org/namespaces/inkscape"
   width="150.01045"
   height="122.55607"
   id="svg10960"
   version="1.1"
   inkscape:version="0.48.4 r9939"
   viewBox="0 0 150.01045 122.55607"
   sodipodi:docname="logo2.svg">
  <defs
     id="defs10962" />
  <sodipodi:namedview
     id="base"
     pagecolor="#ffffff"
     bordercolor="#ffffff"
     borderopacity="0.0"
     inkscape:pageopacity="0.0"
     inkscape:pageshadow="0"
     inkscape:zoom="1.979899"
     inkscape:cx="121.41647"
     inkscape:cy="33.312129"
     inkscape:document-units="px"
     inkscape:current-layer="layer1"
     showgrid="false"
     fit-margin-top="0"
     fit-margin-left="0"
     fit-margin-right="0"
     fit-margin-bottom="0"
     inkscape:window-width="1303"
     inkscape:window-height="744"
     inkscape:window-x="57"
     inkscape:window-y="24"
     inkscape:window-maximized="1" />
  <metadata
     id="metadata10965">
    <rdf:RDF>
      <cc:Work
         rdf:about="">
        <dc:format>image/svg+xml</dc:format>
        <dc:type
           rdf:resource="http://purl.org/dc/dcmitype/StillImage" />
        <dc:title />
      </cc:Work>
    </rdf:RDF>
  </metadata>
  <g
     inkscape:label="Layer 1"
     inkscape:groupmode="layer"
     id="layer1"
     transform="translate(1124.5683,-144.66595)">
    <g
       id="g11929">
      <path
         inkscape:connector-curvature="0"
         id="path10853"
         d="m -1080.8792,183.12682 -3.7881,3.40926 -2.2728,3.66181 -1.0102,8.20749 -9.9752,3.28299 -24.875,18.94036 37.5019,26.76904 29.6732,14.89975 25.7589,-32.82995 17.2989,-25.88516 -5.6821,-4.79823 -4.672,0.63135 -1.894,0.25254 -49.75,-13.25825 z"
         style="fill:#ffffff;fill-opacity:1;stroke:#ffffff;stroke-width:0.29999999999999999;stroke-linecap:butt;stroke-linejoin:miter;stroke-opacity:1;stroke-miterlimit:4;stroke-dasharray:none" />
      <path
         inkscape:connector-curvature="0"
         transform="translate(-1081.6203,201.22869)"
         id="path7063-8-3-5"
         d="m 23.46875,-56.5625 c -2.0426,0.021 -3.02085,1.06247 -3.59375,2.375 L 6,-18.71875 4.1875,-18.90625 c -1.4488,-0.0503 -3.06025,0.81395 -4.46875,0.15625 -1.2359,-0.0688 -1.77025,0.12787 -2.15625,0.375 -1.5204,1.21804 -1.664,3.33301 -1.9375,5.375 -0.4507,0.66057 -0.82165,1.48096 -1.21875,2.28125 0.014,2.6085 -0.4089,4.65849 -0.8125,6.75 -8.6372,2.71355 -6.07425,2.37403 -8.09375,3.28125 -2.6717,2.03904 -4.92245,3.71663 -7.28125,5.5 0.505,-0.0753 1.0332,-0.07665 1.4375,0.03125 1.803,0.61319 1.6206,1.74102 1,2.1875 -1.8491,1.33024 -2.82565,0.90106 -3.21875,0.78125 -0.7858,-0.2283 -0.92995,-0.99377 -0.90625,-1.71875 -3.3545,2.52912 -6.21825,4.64744 -8.78125,6.53125 0.136,0.0157 0.2552,0.0306 0.375,0.0625 1.7368,0.58939 1.81325,1.64039 1.34375,2.21875 0.5534,-0.28235 1.48505,-0.48155 2.34375,-0.5 0.394,-0.008 0.77555,-0.007 1.09375,0.0625 2.0741,0.57285 2.0525,1.60472 1.4375,2.125 0.5182,-0.18252 1.1831,-0.29839 1.8125,-0.3125 0.3739,-0.008 0.72925,0.02555 1.03125,0.09375 2.0174,0.58156 1.9392,1.62337 1.3125,2.125 0.5686,-0.2695 1.4314,-0.45018 2.25,-0.46875 0.3948,-0.009 0.77485,0.02075 1.09375,0.09375 2.273,0.66306 2.0324,1.8922 1.25,2.375 -2.3312,1.43841 -3.5669,0.94203 -4.0625,0.8125 -1.2279,-0.30602 -1.23135,-1.50386 -1.09375,-2.40625 0.023,-0.0399 0.05775,-0.0871 0.09375,-0.125 -1.9782,1.09172 -3.02525,0.70834 -3.46875,0.59375 -1.1626,-0.28631 -1.1928,-1.40575 -1.0625,-2.25 0.021,-0.035 0.06275,-0.06015 0.09375,-0.09375 -1.9515,0.96803 -3.01705,0.58056 -3.46875,0.46875 -1.2253,-0.28913 -1.23105,-1.39741 -1.09375,-2.25 -1.9049,1.28821 -2.92555,0.81471 -3.34375,0.6875 -0.5855,-0.16975 -0.86255,-0.61181 -0.96875,-1.125 -4.3795,3.15301 -7.0587,4.93923 -6.9375,4.40625 -0.5417,1.41267 -1.42785,2.42187 0.21875,6.4375 l 68.3125,39.5625 c 1.9102,1.05208 3.97505,0.76317 6.03125,0.65625 l 13.6875,-14 8.125,-8.03125 2.8125,-3.15625 7.875,-8.03125 c 0.779822,-0.362811 1.360946,-1.044958 1.8125,-2 4.642407,-0.03795 39.07686,-0.300989 39.65625,-0.40625 0.61864,-0.11239 0.75,-1.125 0.75,-1.125 0,0 -34.978066,0.82431 -40.09375,0.78125 0.544808,-1.531558 0.847435,-3.597799 1.0625,-6.1875 l 0.9375,-2.9375 c 1.644,0.21072 3.33415,0.53161 4.09375,-0.71875 1.7213,-3.98509 3.5578,-7.63594 5,-12.3125 1.1939,-0.33067 2.6919,0.55253 3.65625,-0.40625 2.19983,-3.88703 2.58506,-6.93853 2.84375,-9.9375 -0.9333,-0.88324 -2.24953,-1.38813 -4.84375,-0.625 -0.3139,-2.17746 -0.99275,-1.95473 -1.65625,-2.5625 -2.8404,2.07199 -3.8965,9.46508 -4.4375,8.25 0.5472,-3.14814 1.79955,-5.85868 3.09375,-8.5625 0.5899,-1.62155 1.02825,-2.98716 1.46875,-4.3125 -1.9383,-0.4678 -3.8741,-1.16645 -5.8125,-0.78125 L 68.28125,0.125 C 67.27815,0.38386 66.9413,-0.1488 66.6875,-0.78125 L 83.5625,-46 c 0.0515,-1.06107 0.88376,-2.06043 -1.9375,-3.40625 L 24.40625,-56.5 c -0.3369,-0.0406 -0.6456,-0.0655 -0.9375,-0.0625 z M 4.1875,-15.71875 5,-13.90625 52.1875,-1.375 58.46875,-2.03125 64.5,-0.5625 l 1.96875,4.75 c -2.4215,2.88111 -3.3555,3.67458 -4.5,4.4375 C 60.48275,7.69096 60.9333,6.45007 59.5,5.1875 61.0996,4.76771 62.14095,4.68108 62.90625,4.75 62.42115,3.70222 58.9644,3.7562 56.6875,3.4375 56.2987,3.65283 56.03515,3.85195 56.40625,4.40625 l -7.53125,-3 C 39.5641,0.01606 30.7778,-0.57889 21.0625,-3.1875 19.3024,-3.83164 6.6544,-4.43421 5.25,-11.78125 c -0.7478,0.14989 -2.0562,0.45454 -2.0625,0.8125 -0.3156,0.42133 0.42695,0.77843 1.46875,1.125 -2.0401,0.60503 -3.50115,0.53515 -5.03125,0.5625 0.9964,-0.51434 2.15905,-0.96929 2.65625,-1.625 -0.4996,-0.0172 -1.1142,0.18517 -1.6875,-0.5625 0.2083,-0.47033 0.37315,-0.90903 0.28125,-1.15625 l -5.125,0.96875 0.84375,-0.8125 c 1.1877,-0.34849 2.18455,-0.53418 3.28125,-0.65625 l -0.90625,-1.5625 5.21875,-1.03125 z M -15.25,1.1875 c 0.3564,-0.008 0.7121,-0.005 1,0.0625 2.0516,0.61043 1.8312,1.77428 1.125,2.21875 -2.1042,1.32423 -3.20895,0.86926 -3.65625,0.75 -1.1084,-0.28174 -1.1243,-1.38801 -1,-2.21875 0.2616,-0.4595 1.46205,-0.78776 2.53125,-0.8125 z m 29,0.0625 c 0.1986,-0.005 0.4027,-0.0104 0.625,0 3.9987,0.82176 8.3704,1.76869 13,3.96875 C 26.2341,5.37259 25.18665,5.1614 24.09375,5.125 c 1.0817,0.46027 3.0285,0.89876 3.0625,1.40625 -1.9185,0.0815 -1.8379,-0.1746 -2.75,-0.25 l 2.0625,1.375 c -0.9008,0.0867 -1.38185,0.46321 -3.59375,0 C 19.6104,7.62495 18.32515,7.391 16.15625,7.3125 14.51285,6.36429 12.80345,5.6295 11.46875,3.40625 l 1.1875,-0.125 -0.625,-1.03125 c 2.0878,1.14683 3.88005,1.88295 5.59375,2.5 2.0269,0.28435 4.06695,0.35835 6.09375,0.21875 -0.1577,-0.14431 -8.6386,-2.6457 -9,-2.5 C 14.20305,2.67669 12.5,1.65625 12.5,1.65625 12.6867,1.36992 13.1542,1.26594 13.75,1.25 z m -24.5625,1.625 c 0.3294,-0.008 0.64025,0.02645 0.90625,0.09375 1.8961,0.61212 1.7153,1.74178 1.0625,2.1875 -1.9447,1.32794 -2.9615,0.8696 -3.375,0.75 -1.0243,-0.28251 -1.0523,-1.38569 -0.9375,-2.21875 0.2418,-0.46079 1.35565,-0.7877 2.34375,-0.8125 z m 4.78125,1.34375 c 0.3398,-0.009 0.6631,0.02235 0.9375,0.09375 1.9556,0.6482 1.7357,1.87177 1.0625,2.34375 C -6.03695,8.06242 -7.0737,7.56416 -7.5,7.4375 -8.5565,7.13836 -8.58715,5.97589 -8.46875,5.09375 c 0.2493,-0.48794 1.4184,-0.84873 2.4375,-0.875 z M -1.4375,6 c 0.3753,-0.008 0.72815,0.02665 1.03125,0.09375 2.1606,0.60928 1.9312,1.74387 1.1875,2.1875 C -1.43465,9.603 -2.5914,9.15028 -3.0625,9.03125 -4.2297,8.75003 -4.2558,7.64165 -4.125,6.8125 -3.8495,6.35386 -2.5634,6.02469 -1.4375,6 z M -17.25,6.4375 c 0.3132,-0.008 0.622,0.02635 0.875,0.09375 1.803,0.61319 1.6207,1.77227 1,2.21875 -1.8491,1.33024 -2.82565,0.8698 -3.21875,0.75 -0.974,-0.28301 -0.9842,-1.38424 -0.875,-2.21875 0.2299,-0.46159 1.27925,-0.8189 2.21875,-0.84375 z M 3.59375,7.40625 c 0.3587,-0.009 0.7103,0.02285 1,0.09375 2.0646,0.64525 1.8357,1.44004 1.125,2.3125 C 4.15985,11.72642 2.5127,10.75107 2.0625,10.625 0.9472,10.32719 0.90625,9.15941 1.03125,8.28125 1.29455,7.79551 2.51795,7.4324 3.59375,7.40625 z M -12.8125,8 c 0.3132,-0.008 0.622,0.02635 0.875,0.09375 1.803,0.61319 1.6207,1.74102 1,2.1875 -1.8491,1.33025 -2.82565,0.90106 -3.21875,0.78125 -0.974,-0.283 -0.9842,-1.41549 -0.875,-2.25 C -14.80135,8.35091 -13.752,8.02485 -12.8125,8 z M 8.84375,9 c 0.3835,-0.008 0.7528,0.02675 1.0625,0.09375 2.2072,0.6088 1.97855,1.74423 1.21875,2.1875 -2.2638,1.32069 -3.4563,0.86894 -3.9375,0.75 C 5.995,11.75026 5.9913,10.64102 6.125,9.8125 6.4064,9.35424 7.69355,9.02468 8.84375,9 z m -34.125,0.375 c 0.356,-0.009 0.7125,0.02335 1,0.09375 2.0494,0.63982 1.8304,1.84662 1.125,2.3125 -2.1019,1.38798 -3.20935,0.90626 -3.65625,0.78125 -1.1072,-0.2953 -1.1241,-1.44178 -1,-2.3125 0.2613,-0.48163 1.46335,-0.84907 2.53125,-0.875 z m 16.8125,0.21875 c 0.3132,-0.008 0.6221,-0.005 0.875,0.0625 1.803,0.61319 1.6206,1.77227 1,2.21875 -1.8491,1.33025 -2.82565,0.8698 -3.21875,0.75 -0.9741,-0.28301 -0.9841,-1.38425 -0.875,-2.21875 0.2299,-0.46159 1.27925,-0.78765 2.21875,-0.8125 z m 23.1875,1.34375 c 0.3738,-0.01 0.72935,0.01375 1.03125,0.09375 2.1517,0.72684 1.9282,2.06456 1.1875,2.59375 -2.2068,1.57679 -3.3434,1.04825 -3.8125,0.90625 -1.1625,-0.33545 -1.1928,-1.63585 -1.0625,-2.625 0.2743,-0.54713 1.53505,-0.93929 2.65625,-0.96875 z m -18.65625,0.25 c 0.351,-0.008 0.68525,0.02655 0.96875,0.09375 2.0205,0.61086 1.8205,1.36152 1.125,2.1875 -1.5257,1.81193 -3.15325,0.86935 -3.59375,0.75 -1.0916,-0.28195 -1.1223,-1.38738 -1,-2.21875 0.2576,-0.45985 1.4471,-0.78775 2.5,-0.8125 z M -20.90625,11.25 c 0.351,-0.008 0.68525,-0.005 0.96875,0.0625 1.4619,0.44194 1.7721,1.17981 1.5625,1.71875 0.83,-0.23943 1.9812,-0.32399 2.75,-0.15625 2.1917,0.60894 1.9419,1.74411 1.1875,2.1875 -2.2479,1.32102 -3.3971,0.86897 -3.875,0.75 -1.0715,-0.25433 -1.17925,-1.14998 -1.09375,-1.9375 -1.6758,0.87634 -2.6052,0.51319 -3,0.40625 -1.0916,-0.28189 -1.1224,-1.38754 -1,-2.21875 0.2577,-0.45976 1.4471,-0.78774 2.5,-0.8125 z M 20.75,12.96875 c 0.4089,-0.01 0.82605,0.01395 1.15625,0.09375 2.3538,0.72456 2.09155,2.06619 1.28125,2.59375 -2.414,1.57185 -3.6743,1.04783 -4.1875,0.90625 -1.2716,-0.3344 -1.2675,-1.63893 -1.125,-2.625 0.3002,-0.54544 1.6484,-0.93939 2.875,-0.96875 z m -19.1875,0.25 c 0.3834,-0.008 0.7528,-0.005 1.0625,0.0625 2.2073,0.60881 1.97855,1.74423 1.21875,2.1875 -2.2637,1.32068 -3.4562,0.86894 -3.9375,0.75 -1.1924,-0.281 -1.1962,-1.35899 -1.0625,-2.1875 0.2814,-0.45826 1.56845,-0.78782 2.71875,-0.8125 z m -13.34375,1.625 c 0.397,-0.008 0.77305,-0.004 1.09375,0.0625 2.2851,0.60799 2.06785,1.74482 1.28125,2.1875 -2.3436,1.31895 -3.5643,0.86878 -4.0625,0.75 -1.2346,-0.28061 -1.2634,-1.36008 -1.125,-2.1875 0.2913,-0.45767 1.6217,-0.78785 2.8125,-0.8125 z M 7,14.96875 c 0.3441,-0.01 0.69085,0.01355 0.96875,0.09375 1.9809,0.72883 1.77575,2.09434 1.09375,2.625 -2.0316,1.58114 -3.09935,1.01739 -3.53125,0.875 C 4.46105,18.22613 4.4426,16.92938 4.5625,15.9375 4.8151,15.38886 5.9677,14.99828 7,14.96875 z m 20.3125,0.1875 c 0.419,-0.0105 0.81785,0.0396 1.15625,0.125 2.4122,0.77531 2.17405,2.21672 1.34375,2.78125 -2.4738,1.68194 -3.75525,1.08897 -4.28125,0.9375 -1.3031,-0.35783 -1.3334,-1.72608 -1.1875,-2.78125 0.3076,-0.58362 1.71175,-1.03108 2.96875,-1.0625 z M -6.46875,16.75 c 0.4172,-0.01 0.81925,0.01545 1.15625,0.09375 2.4014,0.71143 2.17035,1.60055 1.34375,2.5625 -1.8133,2.11021 -3.75775,1.014 -4.28125,0.875 -1.2973,-0.32835 -1.3329,-1.62553 -1.1875,-2.59375 0.3062,-0.53557 1.71745,-0.90868 2.96875,-0.9375 z m 40.75,0.625 c 0.4302,-0.0101 0.8401,0.0429 1.1875,0.125 2.4764,0.74525 2.2275,2.11361 1.375,2.65625 -2.5399,1.61672 -3.86635,1.0831 -4.40625,0.9375 -1.3379,-0.34397 -1.36875,-1.70451 -1.21875,-2.71875 0.3158,-0.56097 1.772,-0.9698 3.0625,-1 z M 13.0625,17.4375 c 0.377,-0.009 0.72675,0.01875 1.03125,0.09375 2.1704,0.68252 1.96595,1.9718 1.21875,2.46875 -2.226,1.48066 -3.4018,0.97709 -3.875,0.84375 -1.1726,-0.31501 -1.1939,-1.57114 -1.0625,-2.5 0.2767,-0.51379 1.5564,-0.87859 2.6875,-0.90625 z m -14.21875,1.53125 c 0.4225,-0.01 0.81495,0.01485 1.15625,0.09375 2.432,0.7164 2.18095,2.04088 1.34375,2.5625 -2.4943,1.55409 -3.7822,1.04622 -4.3125,0.90625 -1.3139,-0.33065 -1.3347,-1.61883 -1.1875,-2.59375 0.3102,-0.53927 1.7326,-0.93971 3,-0.96875 z m 20.53125,0.6875 c 0.4202,-0.009 0.8481,0.01805 1.1875,0.09375 2.4188,0.68718 2.1452,1.9684 1.3125,2.46875 -2.4807,1.49076 -3.75385,0.978 -4.28125,0.84375 -1.3067,-0.31716 -1.334,-1.56479 -1.1875,-2.5 0.3084,-0.51727 1.70825,-0.8784 2.96875,-0.90625 z M 41.75,19.6875 c 0.4482,-0.0109 0.85665,0.004 1.21875,0.09375 2.5803,0.81019 2.3257,2.31632 1.4375,2.90625 -2.6464,1.75754 -4.03115,1.15827 -4.59375,1 -1.394,-0.37392 -1.4063,-1.8349 -1.25,-2.9375 0.329,-0.60986 1.8428,-1.02966 3.1875,-1.0625 z m -55.15625,0.5 c 0.2055,0.0111 0.3944,0.05635 0.5625,0.09375 1.7712,0.85996 2.16865,1.51782 1.34375,2.4375 -1.8092,2.01747 -4.19635,1.28912 -4.71875,1.15625 -1.2945,-0.31393 -1.30135,-1.54307 -1.15625,-2.46875 0.3055,-0.51202 1.9391,-1.07004 3.3125,-1.1875 0.2289,-0.0196 0.45085,-0.04245 0.65625,-0.03125 z m 17.84375,1.125 c 0.4056,-0.0104 0.7973,0.0403 1.125,0.125 2.3349,0.76884 2.1162,2.19021 1.3125,2.75 C 4.4803,25.85544 3.22785,25.27521 2.71875,25.125 1.45725,24.77016 1.4212,23.39006 1.5625,22.34375 1.8602,21.76498 3.2207,21.34365 4.4375,21.3125 z M 25.75,21.78125 c 0.4073,-0.0115 0.796,2.3e-4 1.125,0.09375 2.3447,0.84963 2.08845,2.44386 1.28125,3.0625 C 25.75155,26.78069 24.5113,26.16598 24,26 c -1.2667,-0.39214 -1.29825,-1.93744 -1.15625,-3.09375 0.299,-0.63956 1.68435,-1.09057 2.90625,-1.125 z M -8.4375,22.5625 c 0.1929,-0.006 0.3451,-0.002 0.5,0.03125 2.2868,0.175 2.12375,2.57115 1.34375,3.125 -2.1355,1.51617 -4.0812,0.68144 -4.5625,0.5625 -1.1924,-0.28099 -1.1961,-1.39023 -1.0625,-2.21875 0.3284,-0.53464 2.43075,-1.45556 3.78125,-1.5 z m 18.90625,1.03125 c 0.4354,-0.0103 0.86705,0.0413 1.21875,0.125 2.5065,0.75957 2.2379,2.16567 1.375,2.71875 -2.5706,1.64782 -3.891,1.0859 -4.4375,0.9375 -1.3541,-0.35057 -1.4018,-1.71625 -1.25,-2.75 0.3196,-0.5718 1.78765,-1.00047 3.09375,-1.03125 z m -37.125,0.71875 c 2.4748,-0.22947 7.07155,1.59852 19.59375,6.59375 9.8551,4.43542 22.85975,13.80437 22.21875,16.8125 C 0.14035,41.33144 -14.3213,33.75529 -28.125,24.78125 c 0.4129,-0.25687 0.89775,-0.4158 1.46875,-0.46875 z M 33.5625,24.625 c 0.4158,-0.011 0.82035,0.004 1.15625,0.09375 2.3939,0.81229 2.16785,2.34606 1.34375,2.9375 -2.4551,1.76213 -3.75935,1.1587 -4.28125,1 -1.2933,-0.3749 -1.30115,-1.86331 -1.15625,-2.96875 0.3052,-0.61145 1.69,-1.02958 2.9375,-1.0625 z m -36.90625,0.5 c 0.4632,-0.0371 0.87425,-0.005 1.21875,0.09375 2.5621,0.48198 2.00225,2.80117 1.21875,3.375 -2.0775,1.52148 -4.0681,0.67363 -4.5,0.53125 -1.0702,-0.33638 -1.08865,-1.63311 -0.96875,-2.625 0.01,-0.61435 1.64195,-1.26372 3.03125,-1.375 z M -30.4375,26.4375 21.125,55.71875 -9.34375,40.125 -30.4375,26.4375 z m 47.4375,0 c 0.4427,-0.011 0.86115,0.0349 1.21875,0.125 2.5488,0.81783 2.28355,2.34201 1.40625,2.9375 -2.614,1.77425 -3.97555,1.15976 -4.53125,1 C 13.71685,30.12252 13.7207,28.64431 13.875,27.53125 14.2,26.91561 15.6718,26.47064 17,26.4375 z M 3.25,27.65625 c 0.1938,0.001 0.3477,-0.0059 0.5,0.03125 2.1705,0.68252 1.90345,2.94054 1.15625,3.4375 -2.226,1.48065 -3.74555,0.85209 -4.21875,0.71875 -1.1726,-0.31501 -1.4439,-1.88364 -1.3125,-2.8125 0.3229,-0.59942 2.5183,-1.38439 3.875,-1.375 z m 20.78125,1.3125 c 0.4606,-0.0122 0.90925,0.0253 1.28125,0.125 2.651,0.9049 2.38135,2.9036 1.46875,3.5625 -2.719,1.96306 -4.14075,0.95802 -4.71875,0.78125 -1.4323,-0.41766 -1.44165,-2.04972 -1.28125,-3.28125 0.3381,-0.68116 1.8685,-1.15082 3.25,-1.1875 z M 8.875,30.28125 c 0.5544,-0.0149 1.1529,0.0891 1.75,0.34375 2.4188,0.68718 1.48645,2.99581 0.65625,3.5 C 8.72895,35.67494 6.8449,34.84759 6.5,34.5625 5.1461,33.78098 5.50075,32.07679 5.53125,32 5.84815,31.37557 7.2117,30.32594 8.875,30.28125 z m 22.8125,1.6875 c 0.4572,-0.0129 0.8807,0.0196 1.25,0.125 2.6319,0.95669 2.62475,3.1472 1.71875,3.84375 -2.6993,2.07529 -4.3636,0.96817 -4.9375,0.78125 C 28.29685,36.27724 28.2782,34.5519 28.4375,33.25 c 0.3356,-0.72012 1.8785,-1.24246 3.25,-1.28125 z M 15.53125,33.3125 c 0.1897,-0.0153 0.3887,-0.009 0.5625,0 0.1987,0.0105 0.398,0.04705 0.5625,0.09375 2.8126,0.5405 2.52875,3.06809 1.53125,3.8125 -2.4285,1.81235 -4.20745,0.79098 -4.71875,0.625 C 12.20205,37.45161 12.1705,35.9063 12.3125,34.75 c 0.3052,-0.65289 1.89155,-1.33003 3.21875,-1.4375 z m 7.6875,3.125 c 0.4881,0.004 0.95155,0.0737 1.28125,0.21875 2.3939,0.81229 2.10525,3.3773 1.28125,3.96875 -2.4552,1.76212 -4.5404,0.65871 -5.0625,0.5 -1.2933,-0.37489 -1.3324,-1.8633 -1.1875,-2.96875 0.3628,-1.12493 2.2234,-1.73145 3.6875,-1.71875 z m 7.6875,3.125 c 0.6544,0.006 1.2455,0.11787 1.6875,0.3125 3.21,1.08973 2.855,4.51906 1.75,5.3125 -3.2921,2.36399 -6.1126,0.83791 -6.8125,0.625 -1.7341,-0.50293 -1.7569,-2.4545 -1.5625,-3.9375 0.4865,-1.50915 2.9744,-2.32953 4.9375,-2.3125 z"
         style="fill:#000000;fill-opacity:1;stroke:none" />
      <path
         style="fill:#ffffff;fill-opacity:1;stroke:none"
         d="m -1056.4407,149.03912 -16.4474,39.1601 50.6324,13.746 16.6087,-44.43475 z"
         id="path3952-0-6-3"
         inkscape:connector-curvature="0" />
      <path
         inkscape:connector-curvature="0"
         id="path4835-2-5-9"
         d="m -1066.5266,173.10369 -7.5312,16.71875 41.9375,9.875 10.1875,2.40625 6.0312,-17.34375 -50.625,-11.65625 z m -0.4375,1.3125 c 1.1479,-0.11793 2.0554,0.27741 3,0.5625 l -1.2187,2.875 c -1.052,-0.002 -1.999,0.13831 -3.1563,-0.28125 0.4328,-1.05226 0.8408,-2.10397 1.375,-3.15625 z m 5.0938,1.03125 c 0.6827,0.0459 1.1665,0.28619 1.875,0.5 -0.4797,1.02296 -0.5485,2.19724 -1.2188,3.03125 -1.3917,-0.10588 -2.5179,-0.53794 -2.6875,-0.65625 -0.051,-0.49282 0.7472,-1.79147 1.2813,-2.84375 0.287,-0.0295 0.5224,-0.0465 0.75,-0.0312 z m 3.5312,0.84375 c 1.148,-0.11792 1.8367,0.33992 2.7813,0.625 l -1,2.8125 c -1.052,-0.002 -1.9677,0.13831 -3.125,-0.28125 0.4329,-1.05226 0.8095,-2.10397 1.3437,-3.15625 z m 4.5938,0.96875 c 1.148,-0.11793 1.8053,0.27741 2.75,0.5625 l -1.1563,3.09375 c -1.052,-0.002 -1.6239,-0.26794 -2.7812,-0.6875 0.4329,-1.05225 0.6534,-1.91647 1.1875,-2.96875 z m -14.2188,0.90625 c 0.2189,0.0167 0.5035,0.13166 0.7813,0.3125 l -1.5313,4.40625 c -0.633,0.12444 -0.7255,0.25106 -1.4062,-0.28125 0.2546,-1.33501 1.285,-3.29342 1.6562,-4.21875 0.1167,-0.14544 0.2812,-0.23547 0.5,-0.21875 z m 18.5938,0.125 c 1.1479,-0.11793 2.0241,0.27741 2.9687,0.5625 l -1.1875,2.875 c -1.052,-0.002 -1.9989,0.13831 -3.1562,-0.28125 0.4328,-1.05226 0.8408,-2.10397 1.375,-3.15625 z m 4.5937,0.96875 c 1.1479,-0.11793 2.1179,0.30867 3.0625,0.59375 -0.1541,1.08413 -0.8399,2.05163 -1.4375,3.0625 -1.052,-0.002 -1.8427,-0.0805 -3,-0.5 0.4329,-1.05226 0.8408,-2.10397 1.375,-3.15625 z m -21.375,0.1875 c 0.6747,-0.0137 1.1353,0.0675 1.8438,0.28125 -0.2944,1.30552 -0.6109,2.38474 -1.2813,3.21875 -1.3917,-0.10588 -2.1741,-0.47544 -2.3437,-0.59375 -0.051,-0.49282 0.4659,-1.82272 1,-2.875 0.287,-0.0295 0.5564,-0.0267 0.7812,-0.0312 z m 26.6563,0.90625 c 0.1348,-0.007 0.2764,-0.0123 0.4062,0 0.7791,0.0739 1.4478,0.34868 2.1563,0.5625 -0.4383,1.07011 -0.7795,2.18843 -1.4688,3.1875 -1.052,-0.002 -1.7177,-0.14294 -2.875,-0.5625 0.38,-1.11512 0.5483,-2.45199 1.375,-3.15625 0.1435,-0.0147 0.2715,-0.024 0.4063,-0.0312 z m -23.2813,0.0937 c 1.1479,-0.11793 1.7429,0.27741 2.6875,0.5625 l -0.875,2.59375 c -0.7099,0.40744 -1.5614,0.20081 -2.7187,-0.21875 0.1051,-1.05226 0.372,-1.88522 0.9062,-2.9375 z m 4.3125,0.90625 c 1.1479,-0.11793 1.8991,0.33992 2.8438,0.625 l -1.4063,3.09375 c -0.9808,-0.21417 -1.2259,-0.2902 -2.4687,-0.625 0.4328,-1.05226 0.497,-2.04147 1.0312,-3.09375 z m 23.2813,0.125 c 1.1479,-0.11793 2.7937,0.26328 2.9687,0.5625 -0.2981,0.93971 -0.6499,1.94844 -1.25,3.1875 -1.052,-0.002 -1.8427,-0.33044 -3,-0.75 0.4328,-1.05226 0.7471,-1.94772 1.2813,-3 z m 5.25,0.78125 c 0.977,0.027 1.861,0.4693 2.6875,0.71875 -0.047,0.86477 -0.3923,1.76802 -1.1563,3.34375 -1.052,-0.002 -2.0614,-0.45544 -3.2187,-0.875 0.4329,-1.05225 0.7471,-2.10397 1.2812,-3.15625 0.1435,-0.0147 0.2667,-0.0351 0.4063,-0.0312 z m -24.0625,0.0625 c 1.1479,-0.11793 2.0553,0.27741 3,0.5625 l -1.2188,2.875 c -1.052,-0.002 -1.9989,0.13831 -3.1562,-0.28125 0.4329,-1.05225 0.8408,-2.10397 1.375,-3.15625 z m 28.8125,1.09375 c 1.1479,-0.11793 2.024,0.27741 2.9687,0.5625 0.082,1.18298 -0.4838,2.22943 -0.9062,3.3125 -1.052,-0.002 -2.2802,-0.29919 -3.4375,-0.71875 0.4329,-1.05225 0.8408,-2.10397 1.375,-3.15625 z m -45.25,0.0312 c 1.1479,-0.11792 2.0554,0.27742 3,0.5625 l -1.2188,2.875 c -1.052,-0.002 -1.9989,0.13831 -3.1562,-0.28125 0.4328,-1.05226 0.8408,-2.10397 1.375,-3.15625 z m 25.4375,0.90625 c 1.1479,-0.11792 2.024,0.27742 2.9687,0.5625 -0.4384,1.07012 -0.7795,2.15718 -1.4687,3.15625 -1.052,-0.002 -1.7177,-0.14294 -2.875,-0.5625 0.38,-1.11512 0.5482,-2.45198 1.375,-3.15625 z m -20.4063,0.1875 c 0.6871,0.0484 1.1665,0.28618 1.875,0.5 -0.4797,1.02296 -0.5797,2.19724 -1.25,3.03125 -1.3917,-0.10588 -2.4866,-0.50669 -2.6562,-0.625 -0.051,-0.49282 0.7158,-1.82272 1.25,-2.875 0.287,-0.0295 0.5522,-0.0474 0.7812,-0.0312 z m 45.3125,0 c 1.262,-0.11757 2.2428,0.27829 3.2813,0.5625 -0.048,0.83127 -0.2675,1.80386 -1.0625,3.375 -1.1566,-0.002 -2.4464,-0.39423 -3.7188,-0.8125 0.4759,-1.04905 0.9127,-2.07593 1.5,-3.125 z m -20.0625,0.9375 c 1.1479,-0.11793 2.7938,0.26329 2.9688,0.5625 -0.2981,0.93971 -0.6499,1.94844 -1.25,3.1875 -1.052,-0.002 -1.8427,-0.33044 -3,-0.75 0.4328,-1.05225 0.747,-1.94772 1.2812,-3 z m -21.9687,0.125 c 1.148,-0.11793 1.8366,0.33991 2.7812,0.625 l -1,2.8125 c -1.052,-0.002 -1.9989,0.13831 -3.1562,-0.28125 0.4329,-1.05226 0.8408,-2.10397 1.375,-3.15625 z m 26.5625,0.875 c 1.1479,-0.11793 2.149,0.43367 3.0937,0.71875 -0.047,0.86478 -0.361,1.73677 -1.125,3.3125 -1.052,-0.002 -2.0927,-0.42419 -3.25,-0.84375 0.4329,-1.05226 0.7471,-2.13522 1.2813,-3.1875 z m -22.125,0.0937 c 1.1479,-0.11792 1.7741,0.27741 2.7187,0.5625 l -1.1562,3.09375 c -1.052,-0.002 -1.624,-0.26794 -2.7813,-0.6875 0.4328,-1.05226 0.6846,-1.91647 1.2188,-2.96875 z m 27.0312,1.1875 c 1.1479,-0.11793 2.0554,0.27741 3,0.5625 0.082,1.18298 -0.5151,2.22944 -0.9375,3.3125 -1.052,-0.002 -2.2802,-0.29919 -3.4375,-0.71875 0.4329,-1.05225 0.8408,-2.10397 1.375,-3.15625 z m 5.0625,1 c 1.262,-0.11757 5.9615,1.2783 7,1.5625 -0.048,0.83128 -0.5801,1.86636 -1.375,3.4375 -1.1566,-0.002 -5.8527,-1.42548 -7.125,-1.84375 0.4759,-1.04905 0.9127,-2.10718 1.5,-3.15625 z m -23.4375,0.0937 c 1.1479,-0.11793 2.1491,0.27742 3.0938,0.5625 -0.1542,1.08413 -0.8711,2.08288 -1.4688,3.09375 -1.052,-0.002 -1.8426,-0.0804 -3,-0.5 0.4329,-1.05225 0.8408,-2.10397 1.375,-3.15625 z m 4.875,0.875 c 1.1479,-0.11793 2.0554,0.27742 3,0.5625 -0.4384,1.07012 -0.8108,2.15718 -1.5,3.15625 -1.052,-0.002 -1.7177,-0.14294 -2.875,-0.5625 0.38,-1.11512 0.5482,-2.45199 1.375,-3.15625 z m 4.75,1.375 c 0.1586,-0.007 0.3089,-0.0118 0.4688,0 0.9594,0.0706 1.9,0.33809 2.0312,0.5625 -0.2981,0.93971 -0.6498,1.94844 -1.25,3.1875 -1.052,-0.002 -1.8427,-0.29919 -3,-0.71875 0.4329,-1.05225 0.7471,-1.94772 1.2813,-3 0.1435,-0.0147 0.3102,-0.0242 0.4687,-0.0312 z m 4.6563,0.90625 c 0.977,0.027 1.861,0.4693 2.6875,0.71875 -0.047,0.86477 -0.361,1.76802 -1.125,3.34375 -1.052,-0.002 -2.0927,-0.45544 -3.25,-0.875 0.4329,-1.05226 0.7471,-2.10397 1.2812,-3.15625 0.1435,-0.0147 0.2667,-0.0351 0.4063,-0.0312 z m 4.5,1.03125 c 1.1479,-0.11792 2.0554,0.27741 3,0.5625 0.082,1.18298 -0.5151,2.22943 -0.9375,3.3125 -1.052,-0.002 -2.2801,-0.29919 -3.4375,-0.71875 0.4329,-1.05226 0.8408,-2.10397 1.375,-3.15625 z m 6.3437,1.5625 c 1.262,-0.11757 2.2428,0.27829 3.2813,0.5625 -0.048,0.83127 -0.2363,1.80386 -1.0313,3.375 -1.1566,-0.002 -2.4776,-0.36298 -3.75,-0.78125 0.4759,-1.04905 0.9127,-2.10718 1.5,-3.15625 z"
         style="fill:#000000;fill-opacity:1;stroke:none" />
      <path
         style="fill:#000000;fill-opacity:1;stroke:#ffffff;stroke-width:0.09948692;stroke-miterlimit:4;stroke-opacity:1;stroke-dasharray:none"
         d="m -1059.8619,198.31164 c -0.1196,-0.60007 5.828,-7.2236 9.0623,-11.38432 0.228,-1.43076 -0.2537,-1.8995 0.3903,-3.33026 l 3.513,0.78943 c -1.1694,1.29038 -1.1949,2.36107 -1.4499,3.25619 -1.9448,0.38626 -2.0781,0.91824 -2.4534,1.43075 -1.8822,2.26948 -3.7825,4.53899 -4.7956,6.80848 0.037,0.5339 0.138,0.96751 0.251,1.38143 -0.5942,0.38408 -1.2616,0.82416 -1.2347,1.69779 -1.8123,-0.15985 -2.1742,-0.38768 -3.283,-0.64949 z"
         id="path4719-8-6-9"
         inkscape:connector-curvature="0" />
      <text
         transform="matrix(0.99113854,0.13283217,-0.13283217,0.99113854,0,0)"
         sodipodi:linespacing="125%"
         id="text3435"
         y="298.76022"
         x="-1025.2018"
         style="font-size:4.323843px;font-style:normal;font-variant:normal;font-weight:bold;font-stretch:normal;line-height:125%;letter-spacing:0px;word-spacing:0px;fill:#4d4d4d;fill-opacity:1;stroke:none;font-family:Verdana;-inkscape-font-specification:Verdana Bold"
         xml:space="preserve"><tspan
           y="298.76022"
           x="-1025.2018"
           id="tspan3437"
           sodipodi:role="line">LaCueva.tv</tspan></text>
    </g>
  </g>
</svg>
